<?xml version="1.0" encoding="UTF-8"?>
<svg id="Layer_2" xmlns="http://www.w3.org/2000/svg" version="1.1" viewBox="0 0 1059 547.7">
  <!-- Generator: Adobe Illustrator 29.6.1, SVG Export Plug-In . SVG Version: 2.1.1 Build 9)  -->
  <defs>
    <style>
      .st0 {
        fill: #f8f9fa;
      }
    </style>
  </defs>
  <g>
    <path class="st0" d="M201.5,351.7c.4.4-2.8,2.2-4.2,2.7-11,5.1-23.4,8-35.7,8.2-29,.7-57.2-13.2-73.9-36.7-2-2.8-3.8-5.9-4.8-9.2-1.8-5.6-1.4-11.7-.9-17.4,3.3-34,26.8-62.4,58.9-73.2,3.4-1.2,7.1-2,10.6-1.2,4.9,1,9.7,4.9,13,8.9,2.9,3.6-1.3,6-4.8,7.5-23,9.9-40.9,29.2-48.5,53-1.7,5.1-1.5,10.6,1.2,15.3,16.3,28.1,50,44.9,82.3,42.1,1.8,0,5.9-.8,6.7,0h0Z"/>
    <path class="st0" d="M198.1,198.1c.1-.5,3.4,1,4.7,1.8,10.7,5.9,20.2,14.2,27.6,24,17.7,23,23,54.1,13.9,81.3-1.1,3.3-2.5,6.5-4.6,9.3-3.5,4.7-8.6,8-13.6,11-29.4,17.4-66.2,15.1-93.9-4.5-2.9-2.1-5.8-4.6-7.2-7.8-2.1-4.6-1.7-10.7-.5-15.7,1.2-4.5,5.6-2.5,8.9-.5,21.5,12.7,47.7,15.8,71.3,8,5.1-1.6,9.4-5.1,11.6-10,13.1-29.7,6.8-66.8-14.4-91.3-1-1.5-4.1-4.3-3.9-5.5h0Z"/>
    <path class="st0" d="M77.3,287.4c-.5.2-1.2-3.3-1.3-4.8-1.5-12.1-.5-24.7,3-36.5,8.1-27.8,30-50.5,57.4-59.2,3.3-1.1,6.8-1.8,10.2-1.8,5.8,0,11.5,2.2,16.9,4.4,31.4,13.5,51.3,44.5,51.8,78.4,0,3.6-.3,7.3-2,10.4-2.4,4.4-7.6,7.7-12.4,9.7-4.4,1.6-5.3-3.1-5.7-6.9-2.5-24.9-15.4-47.8-35.7-62.3-4.3-3.2-9.6-4.6-14.9-3.5-31.7,7-57.9,34-65.2,65.6-.6,1.7-1.1,5.9-2.1,6.4h0Z"/>
  </g>
  <g>
    <path class="st0" d="M277.4,230.8h63.1v13.4h-48.1v22.1h42.6v13.4h-42.6v22.8h48.7v13.4h-63.7v-85Z"/>
    <path class="st0" d="M435.5,318.4l-10.2-9.1c-7.2,5-15.9,8-25.9,8-26.1,0-44.3-19.8-44.3-43.7v-.2c0-23.9,18.5-44,44.6-44s44.3,19.8,44.3,43.7v.2c0,9.6-3.2,18.7-8.6,26.1l9.7,8.3-9.6,10.7ZM414.4,299.6l-14.7-12.5,9.6-10.9,14.9,13.6c2.7-4.6,4.1-10.1,4.1-16.2v-.2c0-16.5-12-30.3-28.9-30.3s-28.7,13.5-28.7,30v.2c0,16.5,12,30.1,28.9,30.1s10.6-1.5,14.7-3.9Z"/>
    <path class="st0" d="M460.8,279.8v-49h14.9v48.4c0,15.8,8.1,24.2,21.5,24.2s21.4-7.9,21.4-23.6v-49h14.9v48.2c0,25.4-14.3,38.1-36.6,38.1s-36.2-12.8-36.2-37.4Z"/>
    <path class="st0" d="M581.2,230.2h13.8l37.4,85.7h-15.8l-8.6-20.5h-40.2l-8.7,20.5h-15.3l37.4-85.7ZM602.6,282.1l-14.7-34-14.6,34h29.3Z"/>
    <path class="st0" d="M637.9,273.6v-.2c0-24.2,18.1-44,43.9-44s25.1,5.5,33.3,13.2l-9.6,11.1c-6.8-6.3-14.1-10.6-23.8-10.6-16.2,0-28.1,13.4-28.1,30v.2c0,16.6,11.8,30.1,28.1,30.1s17.1-4.1,24.4-10.9l9.6,9.7c-8.9,9.2-18.6,15.1-34.5,15.1-24.8,0-43.3-19.3-43.3-43.7Z"/>
    <path class="st0" d="M725.2,273.6v-.2c0-23.9,18.5-44,44.6-44s44.3,19.8,44.3,43.7v.2c0,23.9-18.5,44-44.6,44s-44.3-19.8-44.3-43.7ZM798.5,273.6v-.2c0-16.5-12-30.3-28.9-30.3s-28.7,13.5-28.7,30v.2c0,16.5,12,30.1,28.9,30.1s28.7-13.4,28.7-29.9Z"/>
    <path class="st0" d="M832.2,230.8h37.9c10.7,0,19.1,3.2,24.5,8.5,4.5,4.6,7,10.9,7,18.3v.2c0,14-8.4,22.4-20.2,25.8l23,32.2h-17.7l-20.9-29.6h-18.7v29.6h-14.9v-85ZM869.1,272.9c10.7,0,17.5-5.6,17.5-14.2v-.2c0-9.1-6.6-14.1-17.6-14.1h-21.7v28.6h21.9Z"/>
    <path class="st0" d="M920.1,230.8h63.1v13.4h-48.1v22.1h42.6v13.4h-42.6v22.8h48.7v13.4h-63.7v-85Z"/>
  </g>
</svg>